<?xml version="1.0" encoding="utf-8"?>
<!-- Generator: Adobe Illustrator 18.1.0, SVG Export Plug-In . SVG Version: 6.00 Build 0)  -->
<svg version="1.1" xmlns="http://www.w3.org/2000/svg" xmlns:xlink="http://www.w3.org/1999/xlink" x="0px" y="0px"
	 viewBox="0 0 202 202" enable-background="new 0 0 202 202" xml:space="preserve">
<g id="Layer_4">
	<path fill-rule="evenodd" clip-rule="evenodd" fill="#1ABFD5" d="M1,0c67.327,0,134.673,0,202,0c0,67.327,0,134.673,0,202
		c-67.327,0-134.673,0-202,0C1,134.673,1,67.327,1,0z"/>
</g>
<g id="Layer_2">
	<path fill-rule="evenodd" clip-rule="evenodd" fill="#E9E61F" d="M167.25,68.75c4.999,0.333,10.001,0.667,15,1
		c4.846,6.215,10.706,8.589,13,18c1.725,7.078-3.246,13.006-5,17c-5.75,13.095-7.228,28.018-26,28c0-0.333,0-0.667,0-1
		c2.514-2.466,2.145-6.812,4-9c1.35-1.592,6.387-2.539,8-5c2.483-3.787,12.139-27.49,9-32c-0.896-3.531-2.52-5.925-6-7
		c-6.858-6.527-14.238,0.27-17,5c-3.776,6.467-8.899,15.446-11,23c0.333,3.666,0.667,7.334,1,11c-0.512,2.137-2.382,4.315-3,7
		c-0.667,0-1.333,0-2,0c-1.291-3.885-3.904-7.42-5-12c-1.576-6.588,2.431-11.341,4-15c2.871-6.693,3.957-14.297,8-20
		C157.425,73.271,163.057,72.254,167.25,68.75z"/>
	<path fill-rule="evenodd" clip-rule="evenodd" fill="#E9E61F" d="M164.25,101.75c1.333,0,2.667,0,4,0c1.369,2.529,1.951,3.507,2,8
		c-4.57,4.821-5.09,12.395-8,19c-2.456,5.576-6.521,12.258-9,18c-1.913,4.432-1.7,10.025-6,12c-1.189,0.908-1.651,0.815-4,1
		c-1.298-2.4-1.851-2.834-2-7c2.564-2.759,2.298-6.128,4-10C150.978,129.72,157.126,114.012,164.25,101.75z"/>
	<path fill-rule="evenodd" clip-rule="evenodd" fill="#E9E61F" d="M144.25,128.75c2.582,1.283,1.281-0.168,2,3
		c-1.632,1.859-1.419,4.96-3,7c-2.333,1.333-4.667,2.667-7,4c-3.695,5.202-4.055,12.087-7,18c-1.629,3.27-6.801,10.571-3,16
		c0.812,3.201,1.899,4.964,5,6c4.097,4.287,9.67,2.31,15,1c4.519-8.32,10.916-18.557,14-28c2.309-7.069-4.046-14.937,4-19
		c0.961,1.778,1.3,1.641,2,4c6.345,6.169,1.4,17.522-1,23c-6.514,14.869-5.381,23.5-22,29c-3.097,1.025-8.531,1.463-12,0
		c-8.607-3.631-18.789-15.612-14-29c1.237-3.46,4.575-7.767,6-11c2.468-5.601,2.71-11.245,6-16
		C132.58,131.937,139.49,132.223,144.25,128.75z"/>
</g>
<g id="Layer_5">
	<path fill-rule="evenodd" clip-rule="evenodd" fill="#FFFFFF" d="M138,68c0,0.667,0,1.333,0,2c-0.667,0-1.333,0-2,0
		c-3.666,4-7.334,8-11,12c-0.667,0-1.333,0-2,0c-1,1.333-2,2.667-3,4c-0.667,0-1.333,0-2,0c-0.333,0.667-0.667,1.333-1,2
		c-0.667,0-1.333,0-2,0c0,0.333,0,0.667,0,1c-2,0.333-4,0.667-6,1c0,0.333,0,0.667,0,1c-6.568,2.063-14.524-1.128-19-2
		c0-0.333,0-0.667,0-1c0.333,0,0.667,0,1,0c1.139-1.139,0.004-0.398,2-1c0-0.667,0-1.333,0-2c3.456-0.901,4.446-3.204,7-5
		c0-0.333,0-0.667,0-1c2,0,4,0,6,0c0-0.333,0-0.667,0-1c1,0,2,0,3,0c0-0.333,0-0.667,0-1c0.667,0,1.333,0,2,0c0-0.333,0-0.667,0-1
		c0.667,0,1.333,0,2,0c0.667-1,1.333-2,2-3c0.667,0,1.333,0,2,0c0.333-0.667,0.667-1.333,1-2c2.42-2.286,5.546-6.027,9-7
		c0-0.667,0-1.333,0-2c2.762-0.723,2.237-0.279,3-3c0.667,0,1.333,0,2,0c2.333-2.666,4.667-5.334,7-8c0.667-0.333,1.333-0.667,2-1
		c0.333-1.667,0.667-3.333,1-5c0.483-1.332,2.025-6.196,1-9c-0.333,0-0.667,0-1,0c-0.667-2-1.333-4-2-6c-0.333,0-0.667,0-1,0
		c-1.163-1.518-1.376-1.76-2-4c-3.68-0.967-9.096-5.749-15-4c0,0.333,0,0.667,0,1c-1.333,0-2.667,0-4,0c0,0.333,0,0.667,0,1
		c-1.439,0.836-1.711,0.699-4,1c0,0.667,0,1.333,0,2c-2.927,0.684-3.275,1.113-4,4c-4.756,1.259-4.223,4.669-9,6
		c0,0.667,0,1.333,0,2c-4.756,1.259-4.223,4.669-9,6c-1.071,4.306-4.711,4.716-6,8c0,2.333,0,4.667,0,7c-0.333,0-0.667,0-1,0
		c-3,3.333-6,6.667-9,10c-0.667,0-1.333,0-2,0c-0.219-6.514-1.927-16.394,1-22c0.667-0.333,1.333-0.667,2-1
		c0.333-1.333,0.667-2.667,1-4c0.667-0.333,1.333-0.667,2-1c3-3.333,6-6.667,9-10c1.333-0.667,2.667-1.333,4-2c0-0.667,0-1.333,0-2
		c0.667,0,1.333,0,2,0c2.666-3,5.334-6,8-9c0.667,0,1.333,0,2,0c1-1.333,2-2.667,3-4c1,0,2,0,3,0c0.333-0.667,0.667-1.333,1-2
		c1.333,0,2.667,0,4,0c0-0.333,0-0.667,0-1c4.333-0.333,8.667-0.667,13-1c0,0.333,0,0.667,0,1c1.333,0,2.667,0,4,0
		c0,0.333,0,0.667,0,1c0.667,0,1.333,0,2,0c0,0.333,0,0.667,0,1c1.667,0.333,3.333,0.667,5,1c0.333,0.667,0.667,1.333,1,2
		c0.667,0,1.333,0,2,0c1,1.333,2,2.667,3,4c1,0.667,2,1.333,3,2c0,0.667,0,1.333,0,2c0.667,0.333,1.333,0.667,2,1c0,1,0,2,0,3
		c0.333,0,0.667,0,1,0c0,0.667,0,1.333,0,2c0.333,0,0.667,0,1,0c0,1.333,0,2.667,0,4c0.333,0,0.667,0,1,0
		c2.441,8.275-3.368,21.283-6,25c-1.333,1-2.667,2-4,3C141.873,65.133,141.545,67.088,138,68z"/>
	<path fill-rule="evenodd" clip-rule="evenodd" fill="#FFFFFF" d="M103,70c-4.756,1.259-4.223,4.669-9,6
		c-1.023,3.565-3.77,3.789-6,6c-2.333,2.666-4.667,5.334-7,8c-0.667,0-1.333,0-2,0c-0.333,0.667-0.667,1.333-1,2
		c-2.369,2.241-5.601,6.1-9,7c0,0.667,0,1.333,0,2c-2.762,0.723-2.237,0.279-3,3c-6.395,1.742-4.611,6.704-14,7
		c-2.638-3.203-3.74-1.714-4-8c3.838-2.259,5.262-6.717,10-8c1.023-3.564,3.77-3.789,6-6c2.333-2.666,4.667-5.334,7-8
		c0.667,0,1.333,0,2,0c0.333-0.667,0.667-1.333,1-2c2.369-2.241,5.601-6.1,9-7c0-0.667,0-1.333,0-2c0.667,0,1.333,0,2,0
		c4-4.333,8-8.667,12-13c0.667,0,1.333,0,2,0c1.666-2,3.333-4,5-6c2,0,4,0,6,0c1.139,1.139,0.004,0.398,2,1
		c0.875,2.316,1.017,4.407,1,8c-1.333,1-2.667,2-4,3c0,0.333,0,0.667,0,1C106.051,66.135,104.061,65.871,103,70z"/>
	<path fill-rule="evenodd" clip-rule="evenodd" fill="#FFFFFF" d="M70,73c-1.03,3.773-7.451,9.751-11,11c-1.667,0-3.333,0-5,0
		c0,0.333,0,0.667,0,1c-0.667,0-1.333,0-2,0c0,0.333,0,0.667,0,1c-1,0-2,0-3,0c-0.333,0.667-0.667,1.333-1,2c-0.667,0-1.333,0-2,0
		c-3,3.333-6,6.667-9,10c-0.667,0-1.333,0-2,0c-3.333,3.666-6.667,7.334-10,11c-1,0.333-2,0.667-3,1c-1.774,2.259-1.871,5.153-4,7
		c0,3,0,6,0,9c0.333,0,0.667,0,1,0c0,1,0,2,0,3c0.333,0,0.667,0,1,0c0.859,1.427,0.684,1.724,1,4c0.667,0,1.333,0,2,0
		c1.051,4.111,0.523,1.176,3,3c0,0.333,0,0.667,0,1c1.864,1.51,2.492,1.884,6,2c0,0.333,0,0.667,0,1c4-0.333,8-0.667,12-1
		c0.333-0.667,0.667-1.333,1-2c0.667,0,1.333,0,2,0c0-0.333,0-0.667,0-1c1.503-1.178,1.785-1.347,4-2c0-0.667,0-1.333,0-2
		c1.333-0.667,2.667-1.333,4-2c3-3.333,6-6.667,9-10c0.667,0,1.333,0,2,0c1.666-2,3.334-4,5-6c0.667-0.333,1.333-0.667,2-1
		c0-0.667,0-1.333,0-2c0.667-0.333,1.333-0.667,2-1c0.667-3.333,1.333-6.667,2-10c1-0.333,2-0.667,3-1c2-2.333,4-4.667,6-7
		c0.333,0,0.667,0,1,0c0,0.333,0,0.667,0,1c1.256,1.262,3.028,8.577,2,12c-0.333,0-0.667,0-1,0c0,1.666,0,3.334,0,5
		c-1.916,5.452-8.325,15.598-14,17c0,0.667,0,1.333,0,2c-0.667,0-1.333,0-2,0c-1.53,2.764-6.649,8.136-10,9c0,0.667,0,1.333,0,2
		c-3.279,0.92-4.706,3.082-7,5c0,0.333,0,0.667,0,1c-0.667,0-1.333,0-2,0c-0.667,1-1.333,2-2,3c-1,0-2,0-3,0c0,0.333,0,0.667,0,1
		c-3.666,0.667-7.334,1.333-11,2c0-0.333,0-0.667,0-1c-3,0-6,0-9,0c0-0.333,0-0.667,0-1c-2-0.667-4-1.333-6-2c0-0.333,0-0.667,0-1
		c-0.667,0-1.333,0-2,0c0-0.333,0-0.667,0-1c-1-0.333-2-0.667-3-1c-0.723-2.762-0.279-2.237-3-3c-0.333-1-0.667-2-1-3
		c-0.333,0-0.667,0-1,0c0-0.667,0-1.333,0-2c-0.333,0-0.667,0-1,0c0-0.667,0-1.333,0-2c-0.667-0.333-1.333-0.667-2-1
		c-0.769-1.599-2.921-15.104-2-18c0.333,0,0.667,0,1,0c0.333-2,0.667-4,1-6c0.333,0,0.667,0,1,0c0-1,0-2,0-3c0.333,0,0.667,0,1,0
		c1.319-1.878,1.572-1.916,2-5c2.762-0.723,2.237-0.279,3-3c0.667,0,1.333,0,2,0c1.53-2.764,6.649-8.136,10-9c0-0.667,0-1.333,0-2
		c0.667,0,1.333,0,2,0c2.666-3,5.334-6,8-9c0.667,0,1.333,0,2,0c0.667-1,1.333-2,2-3c3.396-2.345,14.713-7.202,22-5
		c0,0.333,0,0.667,0,1C66,72.333,68,72.667,70,73z"/>
</g>
<g id="Layer_3">
	<path fill-rule="evenodd" clip-rule="evenodd" fill="#D12026" d="M81,114c6.999,0,14.001,0,21,0c0,8.999,0,18.001,0,27
		c9.332,0,18.668,0,28,0c0,6.999,0,14.001,0,21c-8.999,0-18.001,0-27,0c0,8.666,0,17.334,0,26c-7.333,0-14.667,0-22,0
		c0-8.666,0-17.334,0-26c-8.999,0-18.001,0-27,0c-1.779-4.783-1.05-13.585-1-20c6.779-2.508,19.422-1.052,28-1
		C81,132.001,81,122.999,81,114z"/>
</g>
</svg>
